<svg width="238" height="48" viewBox="0 0 238 48" fill="none" xmlns="http://www.w3.org/2000/svg">
<g clip-path="url(#clip0_29_2700)">
<path d="M12.0941 47.3729L1.39561 42.0703C0.62891 41.6877 0 40.7703 0 40.03V1.10502C0 0.36471 0.62891 0.0707097 1.39561 0.449722L12.0941 5.75236C12.8609 6.13137 13.4898 7.05233 13.4898 7.79265V46.7176C13.4898 47.4579 12.8644 47.7555 12.0941 47.3729Z" fill="#5E2BB8"/>
<path d="M20.09 23.6261L30.7885 18.1357C31.5552 17.7426 32.1841 16.7933 32.1841 16.0246V0.849935C32.1841 0.0812835 31.5552 -0.223344 30.7885 0.169838L20.09 5.66021C19.3232 6.05339 18.6943 7.00269 18.6943 7.77134V22.9425C18.6943 23.7147 19.3232 24.0193 20.09 23.6261Z" fill="#08D1D9"/>
<path d="M20.09 47.8297L30.7885 42.3358C31.5552 41.9426 32.1841 40.9933 32.1841 40.2247V25.0536C32.1841 24.2849 31.5552 23.9803 30.7885 24.3735L20.09 29.8674C19.3232 30.2605 18.6943 31.2098 18.6943 31.9785V47.1496C18.6943 47.9183 19.3232 48.2229 20.09 47.8297Z" fill="#08D1D9"/>
<path d="M49.4823 47.3729L38.7838 42.0703C38.0171 41.6913 37.3882 40.7703 37.3882 40.03V1.10502C37.3882 0.36471 38.0171 0.0707097 38.7838 0.449722L49.4823 5.75236C50.249 6.13137 50.8779 7.05233 50.8779 7.79265V46.7176C50.8779 47.4579 50.249 47.7555 49.4823 47.3729Z" fill="#5E2BB8"/>
<path d="M91.8845 12.5642H81.2637V4.67578H74.381V12.5607H63.5659V18.4761H69.65C67.364 20.5731 65.9366 23.5201 65.9366 26.7967C65.9366 33.1513 71.2894 38.3016 77.893 38.3016C84.4965 38.3016 89.8493 33.1513 89.8493 26.7967C89.8493 23.5201 88.4184 20.5695 86.1359 18.4761H91.8845V12.5642ZM77.893 32.0532C74.5259 32.0532 71.7982 29.3151 71.7982 25.943C71.7982 22.5708 74.5294 19.8327 77.893 19.8327C81.2601 19.8327 83.9878 22.5708 83.9878 25.943C83.9878 29.3151 81.2601 32.0532 77.893 32.0532Z" fill="#5E2BB8"/>
<path d="M197.096 29.4287H155.207V35.3441H172.71V47.6001L179.593 46.0203V35.3441H197.096V29.4287Z" fill="#5E2BB8"/>
<path d="M167.905 21.0689V18.7417H191.365V13.2088H167.905V10.8852H191.697V4.96973H160.715V6.49995V10.8852V13.2088V18.7417V21.0689V24.0266V26.9843H192.369V21.0689H167.905Z" fill="#5E2BB8"/>
<path d="M231.117 4.67578V18.1431H225.535C224.263 12.3765 219.002 7.9275 212.702 7.9275C205.452 7.9275 199.573 13.8217 199.573 21.0902C199.573 28.3588 205.452 34.2529 212.702 34.2529C218.945 34.2529 224.168 29.8854 225.5 24.0302H231.121V47.5999L238.004 46.0236V4.67578H231.117ZM212.702 27.7956C209.007 27.7956 206.014 24.7918 206.014 21.0902C206.014 17.3851 209.01 14.3849 212.702 14.3849C216.398 14.3849 219.391 17.3886 219.391 21.0902C219.391 24.7918 216.398 27.7956 212.702 27.7956Z" fill="#5E2BB8"/>
<path d="M108.289 18.3096H101.096V4.67578H100.788H94.2128H93.9055V47.5999L94.2128 47.5255V47.5999L101.096 46.02V24.0267H108.289H108.402V18.3096H108.289Z" fill="#5E2BB8"/>
<path d="M146.525 18.1431V4.67578H139.643V26.8888C135.512 28.543 130.781 28.6492 130.781 28.6492L119.811 28.798V6.5H112.928V35.4006H131.315C134.24 35.4573 137.904 34.2919 139.643 33.6791V47.5963L146.525 46.02V24.0267H154.026V18.1431H146.525Z" fill="#5E2BB8"/>
</g>
<defs>
<clipPath id="clip0_29_2700">
<rect width="238" height="48" fill="white"/>
</clipPath>
</defs>
</svg>
